<svg xmlns="http://www.w3.org/2000/svg" xmlns:xlink="http://www.w3.org/1999/xlink" width="500" zoomAndPan="magnify" viewBox="0 0 375 374.999991" height="500" preserveAspectRatio="xMidYMid meet" version="1.0">
  <defs>
    <clipPath id="401466dfef">
      <path d="M 140.476562 140.152344 L 196 140.152344 L 196 189 L 140.476562 189 Z M 140.476562 140.152344 " clip-rule="nonzero"/>
    </clipPath>
    <clipPath id="3a6045b188">
      <path d="M 185 165 L 240.226562 165 L 240.226562 214 L 185 214 Z M 185 165 " clip-rule="nonzero"/>
    </clipPath>
    <clipPath id="e4c9923704">
      <path d="M 140.476562 191 L 196 191 L 196 239.152344 L 140.476562 239.152344 Z M 140.476562 191 " clip-rule="nonzero"/>
    </clipPath>
    <clipPath id="fa0cf42cd0">
      <path d="M 134.542969 135.90625 L 191 135.90625 L 191 185 L 134.542969 185 Z M 134.542969 135.90625 " clip-rule="nonzero"/>
    </clipPath>
    <clipPath id="9c7abdb1cd">
      <path d="M 178 161 L 234.292969 161 L 234.292969 210 L 178 210 Z M 178 161 " clip-rule="nonzero"/>
    </clipPath>
    <clipPath id="9e26c5bcbb">
      <path d="M 134.542969 186 L 191 186 L 191 234.90625 L 134.542969 234.90625 Z M 134.542969 186 " clip-rule="nonzero"/>
    </clipPath>
    <clipPath id="0188109341">
      <path d="M 211 110 L 240 110 L 240 135 L 211 135 Z M 211 110 " clip-rule="nonzero"/>
    </clipPath>
    <clipPath id="95c470e50e">
      <path d="M 211.089844 111.351562 L 238.761719 109.234375 L 240.652344 133.910156 L 212.980469 136.03125 Z M 211.089844 111.351562 " clip-rule="nonzero"/>
    </clipPath>
    <clipPath id="f93c096487">
      <path d="M 211.089844 111.351562 L 238.761719 109.234375 L 240.652344 133.910156 L 212.980469 136.03125 Z M 211.089844 111.351562 " clip-rule="nonzero"/>
    </clipPath>
    <clipPath id="9d8dc050b6">
      <path d="M 232 123 L 235 123 L 235 126 L 232 126 Z M 232 123 " clip-rule="nonzero"/>
    </clipPath>
    <clipPath id="18de61261c">
      <path d="M 211.089844 111.351562 L 238.761719 109.234375 L 240.652344 133.910156 L 212.980469 136.03125 Z M 211.089844 111.351562 " clip-rule="nonzero"/>
    </clipPath>
    <clipPath id="441612aa41">
      <path d="M 211.089844 111.351562 L 238.761719 109.234375 L 240.652344 133.910156 L 212.980469 136.03125 Z M 211.089844 111.351562 " clip-rule="nonzero"/>
    </clipPath>
    <clipPath id="52a38101dc">
      <path d="M 295.933594 150.210938 L 300.535156 150.210938 L 300.535156 154.816406 L 295.933594 154.816406 Z M 295.933594 150.210938 " clip-rule="nonzero"/>
    </clipPath>
    <clipPath id="6acf5be51f">
      <path d="M 298.234375 150.210938 C 296.964844 150.210938 295.933594 151.242188 295.933594 152.515625 C 295.933594 153.785156 296.964844 154.816406 298.234375 154.816406 C 299.507812 154.816406 300.535156 153.785156 300.535156 152.515625 C 300.535156 151.242188 299.507812 150.210938 298.234375 150.210938 Z M 298.234375 150.210938 " clip-rule="nonzero"/>
    </clipPath>
  </defs>
  
  {/* Removed the background rectangles that were here */}
  
  <g clip-path="url(#401466dfef)">
    <path fill="#fbcb1c" d="M 181.988281 140.15625 L 154.3125 140.15625 L 140.476562 164.121094 L 154.3125 188.089844 L 181.988281 188.089844 L 195.824219 164.121094 Z M 181.988281 140.15625 " fill-opacity="1" fill-rule="nonzero"/>
  </g>
  <g clip-path="url(#3a6045b188)">
    <path fill="#fbcb1c" d="M 226.613281 165.972656 L 198.9375 165.972656 L 185.101562 189.941406 L 198.9375 213.90625 L 226.613281 213.90625 L 240.449219 189.941406 Z M 226.613281 165.972656 " fill-opacity="1" fill-rule="nonzero"/>
  </g>
  <g clip-path="url(#e4c9923704)">
    <path fill="#fbcb1c" d="M 181.988281 191.15625 L 154.3125 191.15625 L 140.476562 215.121094 L 154.3125 239.085938 L 181.988281 239.085938 L 195.824219 215.121094 Z M 181.988281 191.15625 " fill-opacity="1" fill-rule="nonzero"/>
  </g>
  <g clip-path="url(#fa0cf42cd0)">
    <path fill="#211c1d" d="M 176.582031 184.453125 L 148.554688 184.453125 L 134.542969 160.179688 L 148.554688 135.910156 L 176.582031 135.910156 L 190.59375 160.179688 Z M 149.644531 182.566406 L 175.492188 182.566406 L 188.417969 160.179688 L 175.492188 137.792969 L 149.644531 137.792969 L 136.71875 160.179688 Z M 149.644531 182.566406 " fill-opacity="1" fill-rule="nonzero"/>
  </g>
  <g clip-path="url(#9c7abdb1cd)">
    <path fill="#211c1d" d="M 220.503906 209.910156 L 192.476562 209.910156 L 178.464844 185.640625 L 192.476562 161.367188 L 220.503906 161.367188 L 234.515625 185.640625 Z M 193.566406 208.023438 L 219.414062 208.023438 L 232.339844 185.640625 L 219.414062 163.253906 L 193.566406 163.253906 L 180.640625 185.640625 Z M 193.566406 208.023438 " fill-opacity="1" fill-rule="nonzero"/>
  </g>
  <g clip-path="url(#9e26c5bcbb)">
    <path fill="#211c1d" d="M 176.582031 235.085938 L 148.554688 235.085938 L 134.542969 210.8125 L 148.554688 186.542969 L 176.582031 186.542969 L 190.59375 210.8125 Z M 149.644531 233.199219 L 175.492188 233.199219 L 188.417969 210.8125 L 175.492188 188.429688 L 149.644531 188.429688 L 136.71875 210.8125 Z M 149.644531 233.199219 " fill-opacity="1" fill-rule="nonzero"/>
  </g>
   {/* Continuing the paths - most importantly, removing the white background rectangles */}
  <g clip-path="url(#0188109341)">
    <g clip-path="url(#95c470e50e)">
      <g clip-path="url(#f93c096487)">
        <path fill="#211c1d" d="M 237.507812 123.859375 C 237.964844 124.792969 237.957031 125.875 237.5625 126.964844 C 236.542969 127.527344 235.605469 127.335938 235.558594 127.328125 C 235.375 127.289062 235.195312 127.402344 235.15625 127.582031 C 235.113281 127.761719 235.230469 127.945312 235.410156 127.984375 C 235.457031 127.996094 236.214844 128.152344 237.152344 127.863281 C 236.710938 128.664062 236.082031 129.441406 235.292969 130.144531 C 233.996094 129.609375 232.269531 128.601562 231.300781 126.828125 C 230.734375 125.800781 230.488281 124.609375 230.566406 123.273438 C 230.589844 122.820312 230.652344 122.347656 230.75 121.859375 C 230.925781 121.816406 231.101562 121.78125 231.28125 121.75 C 233.183594 121.414062 234.941406 121.652344 236.164062 122.410156 C 236.753906 122.773438 237.214844 123.261719 237.507812 123.859375 Z M 232.660156 131.90625 C 232.273438 132.097656 231.882812 132.261719 231.496094 132.402344 C 230.179688 131.921875 228.148438 130.890625 227.0625 128.910156 C 226.277344 127.480469 226.105469 125.746094 226.546875 123.742188 C 226.796875 123.5625 227.0625 123.390625 227.339844 123.226562 C 227.609375 123.070312 227.886719 122.917969 228.175781 122.777344 C 228.3125 122.710938 228.449219 122.644531 228.589844 122.585938 C 228.5625 122.84375 228.542969 123.09375 228.535156 123.34375 C 228.46875 124.984375 228.800781 126.476562 229.527344 127.800781 C 230.507812 129.59375 232.039062 130.757812 233.421875 131.5 C 233.175781 131.640625 232.921875 131.777344 232.660156 131.90625 Z M 219.105469 112.542969 C 220.953125 112.457031 222.777344 112.878906 224.429688 113.78125 C 226.882812 115.121094 228.648438 117.417969 229.371094 120.0625 C 227.050781 117.382812 223.640625 115.882812 220.132812 115.957031 C 220.117188 115.957031 220.105469 115.957031 220.089844 115.957031 C 219.574219 114.898438 219.230469 113.742188 219.105469 112.542969" fill-opacity="1" fill-rule="nonzero"/>
      </g>
    </g>
  </g>
  
  <g clip-path="url(#9d8dc050b6)">
    <g clip-path="url(#18de61261c)">
      <g clip-path="url(#441612aa41)">
        <path fill="#211c1d" d="M 234.722656 123.574219 C 234.972656 124.085938 234.761719 124.707031 234.246094 124.960938 C 233.734375 125.210938 233.113281 125 232.859375 124.488281 C 232.609375 123.972656 232.820312 123.351562 233.332031 123.097656 C 233.417969 123.058594 233.503906 123.03125 233.589844 123.015625 C 233.378906 123.160156 233.300781 123.4375 233.417969 123.675781 C 233.542969 123.933594 233.859375 124.042969 234.117188 123.914062 C 234.375 123.785156 234.484375 123.472656 234.355469 123.214844 C 234.339844 123.183594 234.324219 123.15625 234.304688 123.132812 C 234.480469 123.230469 234.625 123.378906 234.722656 123.574219" fill-opacity="1" fill-rule="nonzero"/>
      </g>
    </g>
  </g>
</svg>